<mxfile host="app.diagrams.net" agent="Mozilla/5.0 (Windows NT 10.0; Win64; x64; rv:129.0) Gecko/20100101 Firefox/129.0" version="24.7.8">
  <diagram id="C5RBs43oDa-KdzZeNtuy" name="Page-1">
    <mxGraphModel dx="1114" dy="727" grid="1" gridSize="10" guides="1" tooltips="1" connect="1" arrows="1" fold="1" page="1" pageScale="1" pageWidth="827" pageHeight="1169" math="0" shadow="0">
      <root>
        <mxCell id="WIyWlLk6GJQsqaUBKTNV-0" />
        <mxCell id="WIyWlLk6GJQsqaUBKTNV-1" parent="WIyWlLk6GJQsqaUBKTNV-0" />
        <mxCell id="jQV5iNHV3rUz8yUQjNtD-5" style="edgeStyle=orthogonalEdgeStyle;rounded=0;orthogonalLoop=1;jettySize=auto;html=1;entryX=0;entryY=0.5;entryDx=0;entryDy=0;startArrow=classic;startFill=1;exitX=1;exitY=0.25;exitDx=0;exitDy=0;" edge="1" parent="WIyWlLk6GJQsqaUBKTNV-1" source="jQV5iNHV3rUz8yUQjNtD-0" target="jQV5iNHV3rUz8yUQjNtD-1">
          <mxGeometry relative="1" as="geometry">
            <mxPoint x="270" y="255" as="sourcePoint" />
          </mxGeometry>
        </mxCell>
        <mxCell id="jQV5iNHV3rUz8yUQjNtD-6" style="edgeStyle=orthogonalEdgeStyle;rounded=0;orthogonalLoop=1;jettySize=auto;html=1;exitX=1;exitY=0.75;exitDx=0;exitDy=0;entryX=0;entryY=0.5;entryDx=0;entryDy=0;startArrow=classic;startFill=1;" edge="1" parent="WIyWlLk6GJQsqaUBKTNV-1" source="jQV5iNHV3rUz8yUQjNtD-0" target="jQV5iNHV3rUz8yUQjNtD-4">
          <mxGeometry relative="1" as="geometry" />
        </mxCell>
        <mxCell id="jQV5iNHV3rUz8yUQjNtD-0" value="Home Page" style="whiteSpace=wrap;html=1;aspect=fixed;fillColor=#dae8fc;strokeColor=#6c8ebf;" vertex="1" parent="WIyWlLk6GJQsqaUBKTNV-1">
          <mxGeometry x="180" y="210" width="90" height="90" as="geometry" />
        </mxCell>
        <mxCell id="jQV5iNHV3rUz8yUQjNtD-1" value="t" style="swimlane;startSize=0;fillColor=#e1d5e7;strokeColor=#9673a6;" vertex="1" parent="WIyWlLk6GJQsqaUBKTNV-1">
          <mxGeometry x="359" y="190" width="110" height="50" as="geometry" />
        </mxCell>
        <mxCell id="jQV5iNHV3rUz8yUQjNtD-3" value="Sign Up" style="text;html=1;align=center;verticalAlign=middle;resizable=0;points=[];autosize=1;" vertex="1" parent="jQV5iNHV3rUz8yUQjNtD-1">
          <mxGeometry x="16" y="10" width="70" height="30" as="geometry" />
        </mxCell>
        <mxCell id="jQV5iNHV3rUz8yUQjNtD-4" value="t" style="swimlane;startSize=0;fillColor=#e1d5e7;strokeColor=#9673a6;" vertex="1" parent="WIyWlLk6GJQsqaUBKTNV-1">
          <mxGeometry x="359" y="270" width="110" height="50" as="geometry" />
        </mxCell>
        <mxCell id="jQV5iNHV3rUz8yUQjNtD-2" value="Sign In" style="text;html=1;align=center;verticalAlign=middle;resizable=0;points=[];autosize=1;strokeColor=none;fillColor=none;" vertex="1" parent="jQV5iNHV3rUz8yUQjNtD-4">
          <mxGeometry x="26" y="10" width="60" height="30" as="geometry" />
        </mxCell>
        <mxCell id="jQV5iNHV3rUz8yUQjNtD-20" style="edgeStyle=orthogonalEdgeStyle;rounded=0;orthogonalLoop=1;jettySize=auto;html=1;exitX=1;exitY=0.5;exitDx=0;exitDy=0;entryX=0;entryY=0.5;entryDx=0;entryDy=0;startArrow=classic;startFill=1;" edge="1" parent="WIyWlLk6GJQsqaUBKTNV-1" source="jQV5iNHV3rUz8yUQjNtD-16" target="jQV5iNHV3rUz8yUQjNtD-17">
          <mxGeometry relative="1" as="geometry" />
        </mxCell>
        <mxCell id="jQV5iNHV3rUz8yUQjNtD-16" value="Dashboard" style="whiteSpace=wrap;html=1;aspect=fixed;fillColor=#dae8fc;strokeColor=#6c8ebf;" vertex="1" parent="WIyWlLk6GJQsqaUBKTNV-1">
          <mxGeometry x="120" y="360" width="80" height="80" as="geometry" />
        </mxCell>
        <mxCell id="jQV5iNHV3rUz8yUQjNtD-17" value="Puzzle" style="whiteSpace=wrap;html=1;aspect=fixed;fillColor=#dae8fc;strokeColor=#6c8ebf;" vertex="1" parent="WIyWlLk6GJQsqaUBKTNV-1">
          <mxGeometry x="270" y="360" width="80" height="80" as="geometry" />
        </mxCell>
        <mxCell id="jQV5iNHV3rUz8yUQjNtD-18" style="edgeStyle=orthogonalEdgeStyle;rounded=0;orthogonalLoop=1;jettySize=auto;html=1;entryX=0.588;entryY=-0.037;entryDx=0;entryDy=0;entryPerimeter=0;startArrow=classic;startFill=1;exitX=0.25;exitY=1;exitDx=0;exitDy=0;" edge="1" parent="WIyWlLk6GJQsqaUBKTNV-1" source="jQV5iNHV3rUz8yUQjNtD-0" target="jQV5iNHV3rUz8yUQjNtD-16">
          <mxGeometry relative="1" as="geometry" />
        </mxCell>
        <mxCell id="jQV5iNHV3rUz8yUQjNtD-19" style="edgeStyle=orthogonalEdgeStyle;rounded=0;orthogonalLoop=1;jettySize=auto;html=1;exitX=0.75;exitY=1;exitDx=0;exitDy=0;entryX=0.375;entryY=0;entryDx=0;entryDy=0;entryPerimeter=0;startArrow=classic;startFill=1;" edge="1" parent="WIyWlLk6GJQsqaUBKTNV-1" source="jQV5iNHV3rUz8yUQjNtD-0" target="jQV5iNHV3rUz8yUQjNtD-17">
          <mxGeometry relative="1" as="geometry" />
        </mxCell>
      </root>
    </mxGraphModel>
  </diagram>
</mxfile>
